<svg width="448" height="512" viewBox="0 0 448 512" fill="none" xmlns="http://www.w3.org/2000/svg">
<path d="M77.25 256L214.65 118.6C227.15 106.1 227.15 85.85 214.65 73.35C202.15 60.85 181.9 60.85 169.4 73.35L9.39999 233.35C-3.10001 245.85 -3.10001 266.1 9.39999 278.6L169.4 438.6C175.6 444.9 183.8 448 192 448C200.2 448 208.38 444.875 214.62 438.625C227.12 426.125 227.12 405.875 214.62 393.375L77.25 256ZM269.3 256L406.7 118.6C419.2 106.1 419.2 85.85 406.7 73.35C394.2 60.85 373.95 60.85 361.45 73.35L201.45 233.35C188.95 245.85 188.95 266.1 201.45 278.6L361.45 438.6C367.6 444.9 375.8 448 384 448C392.2 448 400.38 444.875 406.62 438.625C419.12 426.125 419.12 405.875 406.62 393.375L269.3 256Z" fill="#6B7276"/>
</svg>
