<svg width="448" height="465" viewBox="0 0 448 465" fill="none" xmlns="http://www.w3.org/2000/svg">
<path d="M416 416H390.19L253.1 52.76C248.412 40.29 236.53 32 223.19 32C209.85 32 197.85 40.289 193.17 52.76L57.81 416H32C14.33 416 0 430.31 0 448C0 465.69 14.33 480 32 480H128C145.67 480 160 465.69 160 448C160 430.31 145.67 416 128 416H126.2L143.3 368H302.9L320 416C302.33 416 288 430.31 288 448C288 465.69 302.33 480 320 480H416C433.67 480 448 465.69 448 448C448 430.31 433.7 416 416 416ZM168.2 304L224 155.1L279.82 304H168.2Z" fill="white" fill-opacity="0.4"/>
</svg>
