<svg width="512" height="512" viewBox="0 0 512 512" fill="none" xmlns="http://www.w3.org/2000/svg">
<g clip-path="url(#clip0_1_7)">
<path d="M447.1 32H63.1C28.64 32 -0.00909424 60.65 -0.00909424 96V416C-0.00909424 451.35 28.6409 480 63.0909 480H447.091C482.441 480 511.091 451.35 511.091 416V96C511.1 60.65 483.3 32 447.1 32ZM111.1 96C137.61 96 159.1 117.49 159.1 144C159.1 170.51 138.5 192 111.1 192C83.7 192 63.1 170.51 63.1 144C63.1 117.49 85.48 96 111.1 96ZM446.1 407.6C443.3 412.8 437.9 416 432 416H82.01C75.989 416 70.48 412.621 67.75 407.25C65.02 401.883 65.535 395.44 69.084 390.57L139.084 294.57C142.1 290.4 146.9 288 152 288C157.1 288 161.916 290.441 164.93 294.574L197.39 339.084L290.69 199.984C293.7 194.7 298.7 192 304 192C309.3 192 314.35 194.672 317.31 199.125L445.31 391.125C448.6 396 448.9 402.3 446.1 407.6Z" fill="white" fill-opacity="0.4"/>
</g>
<defs>
<clipPath id="clip0_1_7">
<rect width="512" height="512" fill="white"/>
</clipPath>
</defs>
</svg>
